<svg xmlns="http://www.w3.org/2000/svg" viewBox="0 0 64 64"><path d="M34.806 26.743l3.536-3.536a.999.999 0 0 0 0-1.414l-3.536-3.536a.999.999 0 1 0-1.414 1.414L35.22 21.5h-5.148a.5.5 0 0 0-.5.5v1a.5.5 0 0 0 .5.5h5.148l-1.828 1.828a1 1 0 0 0 1.414 1.415zM28.572 23v-1a.5.5 0 0 0-1 0v1a.5.5 0 0 0 1 0zM26.572 23v-1a.5.5 0 0 0-1 0v1a.5.5 0 0 0 1 0z"/><circle cx="15" cy="21" r="5.5"/><circle cx="49" cy="21" r="5.5"/><path d="M21 30.5H9a4 4 0 0 0-4 4v14h3v-12a.5.5 0 1 1 1 0v12h12v-12a.5.5 0 0 1 1 0v12h3v-14a4 4 0 0 0-4-4zM55 30.5H43a4 4 0 0 0-4 4v14h3v-12a.5.5 0 0 1 1 0v12h12v-12a.5.5 0 0 1 1 0v12h3v-14a4 4 0 0 0-4-4z"/></svg>